<svg xmlns="http://www.w3.org/2000/svg" xmlns:xlink="http://www.w3.org/1999/xlink" version="1.1" preserveAspectRatio="none" x="0px" y="0px" viewBox="0 0 100 125"><defs><g id="a"><path fill="#000000" stroke="none" d=" M 83.9 23.9 Q 85.50546875 22.28359375 85.5 20 85.50546875 17.71640625 83.9 16.1 82.28359375 14.49453125 80 14.5 77.71640625 14.49453125 76.1 16.1 L 50 42.2 23.9 16.1 Q 22.28359375 14.49453125 20 14.5 17.71640625 14.49453125 16.1 16.1 14.49453125 17.71640625 14.5 20 14.49453125 22.28359375 16.1 23.9 L 42.2 50 16.1 76.1 Q 14.49453125 77.71640625 14.5 80 14.49453125 82.28359375 16.1 83.9 17.71640625 85.50546875 20 85.5 22.28359375 85.50546875 23.9 83.9 L 50 57.8 76.1 83.9 Q 77.71640625 85.50546875 80 85.5 82.28359375 85.50546875 83.9 83.9 85.50546875 82.28359375 85.5 80 85.50546875 77.71640625 83.9 76.1 L 57.8 50 83.9 23.9 Z"/></g></defs><g transform="matrix( 1, 0, 0, 1, 0,0) "><use xlink:href="#a"/></g><text x="0" y="115" fill="#000000" font-size="5px" font-weight="bold" font-family="'Helvetica Neue', Helvetica, Arial-Unicode, Arial, Sans-serif">Created by Richard Kunák</text><text x="0" y="120" fill="#000000" font-size="5px" font-weight="bold" font-family="'Helvetica Neue', Helvetica, Arial-Unicode, Arial, Sans-serif">from the Noun Project</text></svg>